<svg width="28" height="34" viewBox="0 0 28 34" fill="none" xmlns="http://www.w3.org/2000/svg">
<path d="M6.50002 33.6666C4.88891 33.6666 3.51391 33.0971 2.37502 31.9583C1.23613 30.8194 0.666687 29.4444 0.666687 27.8333V6.16658C0.666687 4.55547 1.23613 3.18047 2.37502 2.04159C3.51391 0.902697 4.88891 0.333252 6.50002 0.333252H27.3334V25.3333C26.6389 25.3333 26.0489 25.5766 25.5634 26.0633C25.0778 26.5499 24.8345 27.1399 24.8334 27.8333C24.8322 28.5266 25.0756 29.1171 25.5634 29.6049C26.0511 30.0927 26.6411 30.3355 27.3334 30.3333V33.6666H6.50002ZM4.00002 22.5416C4.38891 22.3471 4.79169 22.2083 5.20835 22.1249C5.62502 22.0416 6.05558 21.9999 6.50002 21.9999H7.33335V3.66659H6.50002C5.80558 3.66659 5.21558 3.90992 4.73002 4.39659C4.24447 4.88325 4.00113 5.47325 4.00002 6.16658V22.5416ZM10.6667 21.9999H24V3.66659H10.6667V21.9999ZM6.50002 30.3333H22.0417C21.875 29.9444 21.7434 29.5488 21.6467 29.1466C21.55 28.7444 21.5011 28.3066 21.5 27.8333C21.5 27.3888 21.5417 26.9583 21.625 26.5416C21.7084 26.1249 21.8472 25.7221 22.0417 25.3333H6.50002C5.7778 25.3333 5.18058 25.5766 4.70835 26.0633C4.23613 26.5499 4.00002 27.1399 4.00002 27.8333C4.00002 28.5555 4.23613 29.1527 4.70835 29.6249C5.18058 30.0971 5.7778 30.3333 6.50002 30.3333Z" fill="#4A7ED8"/>
</svg>
