<svg width="34" height="33" viewBox="0 0 34 33" fill="none" xmlns="http://www.w3.org/2000/svg">
<path d="M13.3333 14.0001C11.5 14.0001 9.93056 13.3473 8.625 12.0417C7.31945 10.7362 6.66667 9.16675 6.66667 7.33341C6.66667 5.50008 7.31945 3.93064 8.625 2.62508C9.93056 1.31953 11.5 0.666748 13.3333 0.666748C15.1667 0.666748 16.7361 1.31953 18.0417 2.62508C19.3472 3.93064 20 5.50008 20 7.33341C20 9.16675 19.3472 10.7362 18.0417 12.0417C16.7361 13.3473 15.1667 14.0001 13.3333 14.0001ZM13.3333 10.6667C14.25 10.6667 15.035 10.3406 15.6883 9.68841C16.3417 9.03619 16.6678 8.25119 16.6667 7.33341C16.6656 6.41564 16.3394 5.63119 15.6883 4.98008C15.0372 4.32897 14.2522 4.0023 13.3333 4.00008C12.4144 3.99786 11.63 4.32453 10.98 4.98008C10.33 5.63564 10.0033 6.42008 10 7.33341C9.99667 8.24675 10.3233 9.03175 10.98 9.68841C11.6367 10.3451 12.4211 10.6712 13.3333 10.6667ZM30.6667 32.0001L26.5 27.8334C25.9167 28.1667 25.2917 28.4445 24.625 28.6667C23.9583 28.889 23.25 29.0001 22.5 29.0001C20.4167 29.0001 18.6461 28.2712 17.1883 26.8134C15.7306 25.3556 15.0011 23.5845 15 21.5001C14.9989 19.4156 15.7283 17.6451 17.1883 16.1884C18.6483 14.7317 20.4189 14.0023 22.5 14.0001C24.5811 13.9979 26.3522 14.7273 27.8133 16.1884C29.2744 17.6495 30.0033 19.4201 30 21.5001C30 22.2501 29.8889 22.9584 29.6667 23.6251C29.4444 24.2917 29.1667 24.9167 28.8333 25.5001L33 29.6667C33.3056 29.9723 33.4583 30.3612 33.4583 30.8334C33.4583 31.3056 33.3056 31.6945 33 32.0001C32.6944 32.3056 32.3056 32.4584 31.8333 32.4584C31.3611 32.4584 30.9722 32.3056 30.6667 32.0001ZM22.5 25.6667C23.6667 25.6667 24.6528 25.264 25.4583 24.4584C26.2639 23.6529 26.6667 22.6667 26.6667 21.5001C26.6667 20.3334 26.2639 19.3473 25.4583 18.5417C24.6528 17.7362 23.6667 17.3334 22.5 17.3334C21.3333 17.3334 20.3472 17.7362 19.5417 18.5417C18.7361 19.3473 18.3333 20.3334 18.3333 21.5001C18.3333 22.6667 18.7361 23.6529 19.5417 24.4584C20.3472 25.264 21.3333 25.6667 22.5 25.6667ZM0 24.0001V22.7084C0 21.764 0.236111 20.889 0.708333 20.0834C1.18056 19.2779 1.83333 18.6667 2.66667 18.2501C3.83333 17.639 5.13222 17.1045 6.56333 16.6467C7.99445 16.189 9.45944 15.8901 10.9583 15.7501C11.4306 15.6945 11.8333 15.8334 12.1667 16.1667C12.5 16.5001 12.6667 16.9029 12.6667 17.3751C12.6667 17.8473 12.5 18.2573 12.1667 18.6051C11.8333 18.9529 11.4306 19.154 10.9583 19.2084C9.375 19.4029 8.04167 19.6945 6.95833 20.0834C5.875 20.4723 4.95833 20.8612 4.20833 21.2501C3.93056 21.389 3.71556 21.5906 3.56333 21.8551C3.41111 22.1195 3.33444 22.404 3.33333 22.7084V24.0001H11C11.4722 24.0001 11.8683 24.1601 12.1883 24.4801C12.5083 24.8001 12.6678 25.1956 12.6667 25.6667C12.6656 26.1379 12.5061 26.534 12.1883 26.8551C11.8706 27.1762 11.4744 27.3356 11 27.3334H3.33333C2.41667 27.3334 1.63222 27.0073 0.98 26.3551C0.327778 25.7029 0.00111111 24.9179 0 24.0001Z" fill="#C9CFDC"/>
</svg>
