<svg width="30" height="34" viewBox="0 0 30 34" fill="none" xmlns="http://www.w3.org/2000/svg">
<path d="M3.33333 34.0001C2.41667 34.0001 1.63222 33.674 0.98 33.0217C0.327778 32.3695 0.00111111 31.5845 0 30.6667V7.33341C0 6.41675 0.326667 5.6323 0.98 4.98008C1.63333 4.32786 2.41778 4.00119 3.33333 4.00008H10.3333C10.6944 3.00008 11.2989 2.19453 12.1467 1.58341C12.9944 0.972304 13.9456 0.666748 15 0.666748C16.0544 0.666748 17.0061 0.972304 17.855 1.58341C18.7039 2.19453 19.3078 3.00008 19.6667 4.00008H26.6667C27.5833 4.00008 28.3683 4.32675 29.0217 4.98008C29.675 5.63341 30.0011 6.41786 30 7.33341V30.6667C30 31.5834 29.6739 32.3684 29.0217 33.0217C28.3694 33.6751 27.5844 34.0012 26.6667 34.0001H3.33333ZM3.33333 30.6667H26.6667V7.33341H3.33333V30.6667ZM8.33333 27.3334H16.6667C17.1389 27.3334 17.535 27.1734 17.855 26.8534C18.175 26.5334 18.3344 26.1379 18.3333 25.6667C18.3322 25.1956 18.1722 24.8001 17.8533 24.4801C17.5344 24.1601 17.1389 24.0001 16.6667 24.0001H8.33333C7.86111 24.0001 7.46556 24.1601 7.14667 24.4801C6.82778 24.8001 6.66778 25.1956 6.66667 25.6667C6.66556 26.1379 6.82556 26.534 7.14667 26.8551C7.46778 27.1762 7.86333 27.3356 8.33333 27.3334ZM8.33333 20.6667H21.6667C22.1389 20.6667 22.535 20.5067 22.855 20.1867C23.175 19.8667 23.3344 19.4712 23.3333 19.0001C23.3322 18.529 23.1722 18.1334 22.8533 17.8134C22.5344 17.4934 22.1389 17.3334 21.6667 17.3334H8.33333C7.86111 17.3334 7.46556 17.4934 7.14667 17.8134C6.82778 18.1334 6.66778 18.529 6.66667 19.0001C6.66556 19.4712 6.82556 19.8673 7.14667 20.1884C7.46778 20.5095 7.86333 20.669 8.33333 20.6667ZM8.33333 14.0001H21.6667C22.1389 14.0001 22.535 13.8401 22.855 13.5201C23.175 13.2001 23.3344 12.8045 23.3333 12.3334C23.3322 11.8623 23.1722 11.4667 22.8533 11.1467C22.5344 10.8267 22.1389 10.6667 21.6667 10.6667H8.33333C7.86111 10.6667 7.46556 10.8267 7.14667 11.1467C6.82778 11.4667 6.66778 11.8623 6.66667 12.3334C6.66556 12.8045 6.82556 13.2006 7.14667 13.5217C7.46778 13.8429 7.86333 14.0023 8.33333 14.0001ZM15 6.08341C15.3611 6.08341 15.66 5.96508 15.8967 5.72842C16.1333 5.49175 16.2511 5.19341 16.25 4.83341C16.2489 4.47341 16.1306 4.17508 15.895 3.93841C15.6594 3.70175 15.3611 3.58341 15 3.58341C14.6389 3.58341 14.3406 3.70175 14.105 3.93841C13.8694 4.17508 13.7511 4.47341 13.75 4.83341C13.7489 5.19341 13.8672 5.4923 14.105 5.73008C14.3428 5.96786 14.6411 6.08564 15 6.08341Z" fill="#C9CFDC"/>
</svg>
