<svg width="34" height="34" viewBox="0 0 34 34" fill="none" xmlns="http://www.w3.org/2000/svg">
<path d="M12 26.9999H21.1667C21.6389 26.9999 22.0767 26.8816 22.48 26.6449C22.8833 26.4083 23.1678 26.0821 23.3333 25.6666L26.8333 17.4999C26.8889 17.361 26.9306 17.2221 26.9583 17.0833C26.9861 16.9444 27 16.8055 27 16.6666V15.3333C27 14.861 26.84 14.4649 26.52 14.1449C26.2 13.8249 25.8045 13.6655 25.3333 13.6666H17.6667L18.6667 7.99992C18.7222 7.72214 18.7083 7.45825 18.625 7.20825C18.5417 6.95825 18.4028 6.73603 18.2083 6.54159L17 5.33325L9.33335 13.6666C9.11112 13.8888 8.94446 14.1388 8.83335 14.4166C8.72223 14.6944 8.66668 14.9999 8.66668 15.3333V23.6666C8.66668 24.5833 8.99335 25.3683 9.64668 26.0216C10.3 26.6749 11.0845 27.001 12 26.9999ZM17 33.6666C14.6945 33.6666 12.5278 33.2288 10.5 32.3533C8.47223 31.4777 6.70835 30.2905 5.20835 28.7916C3.70835 27.2927 2.52112 25.5288 1.64668 23.4999C0.772235 21.471 0.334457 19.3044 0.333346 16.9999C0.332235 14.6955 0.770012 12.5288 1.64668 10.4999C2.52335 8.47103 3.71057 6.70714 5.20835 5.20825C6.70612 3.70936 8.47001 2.52214 10.5 1.64659C12.53 0.77103 14.6967 0.333252 17 0.333252C19.3033 0.333252 21.47 0.77103 23.5 1.64659C25.53 2.52214 27.2939 3.70936 28.7917 5.20825C30.2895 6.70714 31.4772 8.47103 32.355 10.4999C33.2328 12.5288 33.67 14.6955 33.6667 16.9999C33.6633 19.3044 33.2256 21.471 32.3533 23.4999C31.4811 25.5288 30.2939 27.2927 28.7917 28.7916C27.2895 30.2905 25.5256 31.4783 23.5 32.3549C21.4745 33.2316 19.3078 33.6688 17 33.6666ZM17 30.3333C20.7222 30.3333 23.875 29.0416 26.4583 26.4583C29.0417 23.8749 30.3333 20.7221 30.3333 16.9999C30.3333 13.2777 29.0417 10.1249 26.4583 7.54159C23.875 4.95825 20.7222 3.66659 17 3.66659C13.2778 3.66659 10.125 4.95825 7.54168 7.54159C4.95835 10.1249 3.66668 13.2777 3.66668 16.9999C3.66668 20.7221 4.95835 23.8749 7.54168 26.4583C10.125 29.0416 13.2778 30.3333 17 30.3333Z" fill="#C9CFDC"/>
</svg>
