<svg width="34" height="34" viewBox="0 0 34 34" fill="none" xmlns="http://www.w3.org/2000/svg">
<path d="M6.99998 20.3333H20.3333V16.9999H6.99998V20.3333ZM6.99998 15.3333H27V11.9999H6.99998V15.3333ZM6.99998 10.3333H27V6.99992H6.99998V10.3333ZM0.333313 33.6666V3.66659C0.333313 2.74992 0.65998 1.96547 1.31331 1.31325C1.96665 0.66103 2.75109 0.334363 3.66665 0.333252H30.3333C31.25 0.333252 32.035 0.659919 32.6883 1.31325C33.3416 1.96659 33.6678 2.75103 33.6666 3.66659V23.6666C33.6666 24.5833 33.3405 25.3683 32.6883 26.0216C32.0361 26.6749 31.2511 27.001 30.3333 26.9999H6.99998L0.333313 33.6666ZM5.58331 23.6666H30.3333V3.66659H3.66665V25.5416L5.58331 23.6666Z" fill="#C9CFDC"/>
</svg>
