<svg width="30" height="30" viewBox="0 0 30 30" fill="none" xmlns="http://www.w3.org/2000/svg">
<path d="M15 30C11.1667 30 7.82667 28.7294 4.98 26.1883C2.13333 23.6472 0.501111 20.4733 0.0833333 16.6667H3.5C3.88889 19.5556 5.17389 21.9444 7.355 23.8333C9.53611 25.7222 12.0844 26.6667 15 26.6667C18.25 26.6667 21.0072 25.535 23.2717 23.2717C25.5361 21.0083 26.6678 18.2511 26.6667 15C26.6656 11.7489 25.5339 8.99222 23.2717 6.73C21.0094 4.46778 18.2522 3.33556 15 3.33333C13.0833 3.33333 11.2917 3.77778 9.625 4.66667C7.95833 5.55556 6.55556 6.77778 5.41667 8.33333H10V11.6667H0V1.66667H3.33333V5.58333C4.75 3.80556 6.47944 2.43056 8.52167 1.45833C10.5639 0.486111 12.7233 0 15 0C17.0833 0 19.035 0.396111 20.855 1.18833C22.675 1.98056 24.2583 3.04944 25.605 4.395C26.9517 5.74056 28.0211 7.32389 28.8133 9.145C29.6056 10.9661 30.0011 12.9178 30 15C29.9989 17.0822 29.6033 19.0339 28.8133 20.855C28.0233 22.6761 26.9539 24.2594 25.605 25.605C24.2561 26.9506 22.6728 28.02 20.855 28.8133C19.0372 29.6067 17.0856 30.0022 15 30ZM19.6667 22L13.3333 15.6667V6.66667H16.6667V14.3333L22 19.6667L19.6667 22Z" fill="#4A7ED8"/>
</svg>
